<svg width="57" height="56" xmlns="http://www.w3.org/2000/svg" xmlns:xlink="http://www.w3.org/1999/xlink" xml:space="preserve" overflow="hidden"><g transform="translate(-38 -38)"><path d="M25.0409 5.39286C29.9148 6.14298 34.0373 8.57063 37.0664 9.87784 39.1882 10.7939 39.9193 12.0214 40.7536 11.1084 41.8632 9.89109 39.4722 7.45937 37.0607 6.35378 36.6978 6.18785 36.8626 5.77004 37.2467 5.99264 39.8477 6.99158 42.9028 9.73259 44.4233 12.5038 46.5013 16.2973 47.6563 20.3311 48.0526 22.5433 48.616 24.614 48.377 25.9799 49.6035 25.9856 51.5052 25.996 51.1106 20.7068 50.6036 19.0978 50.4728 18.6842 50.8934 18.5995 51.0334 18.9694 52.5087 22.2841 52.0715 28.8926 50.0822 32.3683 46.0818 40.8744 42.2709 42.2812 44.1437 44.4074 45.8345 46.3281 49.5142 41.808 50.5251 40.4549 50.8132 40.0706 51.1295 40.2687 50.902 40.6238 45.0597 49.7837 38.1293 50.6836 27.7051 49.305 27.2333 49.2422 27.1037 49.0803 27.2452 48.6172L31.0009 36.2655C31.1115 35.9015 31.2469 35.8254 31.6664 35.8243L37.292 35.8068C40.5626 35.7965 41.6766 34.2308 41.9389 33.3528L44.9998 23.1298C45.9289 19.4296 43.178 18.5066 41.8236 18.5078L32.2009 18.5238C31.7436 18.5238 31.675 18.5589 31.5367 19.013L22.7379 47.8849C22.6884 48.0451 22.6301 48.3088 22.1947 48.2939 20.6628 48.2473 20.8742 49.3746 22.1642 50.3096 23.2156 51.0725 24.9415 51.7776 26.4907 52.1544 27.5173 52.4051 28.5035 52.606 29.5987 52.6729 29.9801 52.6469 30.0118 52.8156 29.9961 52.9309 29.9785 53.0457 29.8793 53.0968 29.6962 53.1227 21.3051 53.1099 16.0408 48.2386 12.5951 42.3058 11.7972 41.2677 10.4445 38.1498 9.36096 38.3873 7.82736 38.3666 8.19594 41.4716 8.50478 42.3013 9.39315 44.6915 10.8609 46.3237 11.2017 46.7171 11.5191 47.1493 10.9585 47.3884 10.5684 46.8377 6.73096 42.912 5.8034 37.5106 6.30294 32.7631 7.15445 24.6854 9.93596 20.8279 8.20759 20.2264 6.8998 19.772 4.95567 22.3028 4.19273 25.1251 4.05725 25.4921 3.79648 25.5126 3.82416 25.1584 4.07765 22.0439 7.36016 16.5681 12.1642 13.762 15.86 11.601 19.5036 9.12087 19.0918 10.4708L11.5657 35.1936C11.5178 35.4924 11.3328 35.7966 12.0651 35.7995L23.7882 35.8635C24.308 35.8664 24.6558 35.8911 24.7972 35.428L25.8853 31.8429C25.9217 31.7916 25.9781 31.3416 25.5881 31.3405L18.652 31.3301C18.422 31.3681 17.9294 31.1844 18.1045 30.5672L24.9083 8.4669C25.0537 7.99504 25.5213 8.0284 25.6625 7.7197 25.8181 7.37924 25.7294 6.92049 24.9545 6.8797 22.1195 5.6347 17.6092 5.99555 14.5875 7.81469 14.0649 8.05914 13.887 7.65749 14.1115 7.52332 15.4176 6.74858 19.4907 4.43777 25.0407 5.39286Z" fill="#E31E24" fill-rule="evenodd" transform="matrix(1.0007 0 0 1 38 38.057)"/><path d="M35.3537 23.1847 38.521 23.1807C39.4285 23.1687 39.7879 24.0996 39.5274 25.0254L38.0739 29.9217C37.7024 30.9789 36.8872 31.381 36.0364 31.3533L33.1823 31.3649C32.7818 31.3706 32.556 31.1989 32.7092 30.7285L34.7711 23.9656C34.9226 23.4926 34.9589 23.1936 35.3536 23.1849Z" fill="#E31E24" fill-rule="evenodd" transform="matrix(1.0007 0 0 1 38 38.057)"/><path d="M52.4654 36.0864C54.2611 36.0397 55.6955 35.683 56.1467 34.5982 56.5562 33.6137 55.9399 32.8538 56.4877 31.537 57.0933 28.3349 57.137 25.6976 56.498 23.7405 56.3419 23.3778 55.9911 23.4404 56.0476 23.8454 56.2094 24.709 56.1351 25.7892 55.8978 26.7231 54.9018 31.1164 53.7005 33.5384 52.3779 34.3259 51.8875 34.5909 51.4721 35.0892 51.5263 35.5 51.5743 35.8578 51.9181 36.0473 52.4654 36.0867Z" fill="#E31E24" fill-rule="evenodd" transform="matrix(1.0007 0 0 1 38 38.057)"/><path d="M52.2517 16.2361C53.0921 15.4031 53.1809 14.4173 52.546 13.7021 52.3346 13.2642 52.1031 12.9 51.6518 12.4963 50.2203 11.3549 48.9823 9.81112 46.7094 8.1582 45.9444 7.71402 45.2106 7.31543 44.5262 6.98022 44.2074 6.87984 44.0399 7.14615 44.2961 7.32403 45.2748 8.07415 46.1252 8.88647 46.6202 9.87798 46.862 10.3035 47.1243 10.7738 47.2624 11.1845 47.3587 11.4715 47.4461 11.6753 47.5843 11.9127 47.7388 12.179 47.9162 12.3553 48.0763 12.6116 48.2935 12.9567 48.5131 13.3806 48.7405 13.6848L50.013 16.0584C50.1542 16.3206 49.9594 16.6149 50.1657 16.9382 50.6161 17.6271 51.6369 16.8477 52.2513 16.2363Z" fill="#E31E24" fill-rule="evenodd" transform="matrix(1.0007 0 0 1 38 38.057)"/><path d="M26.1817 1.16939C26.1384 0.439086 25.3838 0.102706 23.766 0L23.0935 0C22.0608 0.0709472 21.2145 0.449575 20.249 0.637797 19.3606 0.827329 18.5075 1.04279 17.6657 1.34261 17.3829 1.44458 17.3755 1.71585 17.5885 1.76363 17.9612 1.82176 18.3092 1.98652 18.6849 2.03722 19.0197 2.08092 19.3122 2.14779 19.5744 2.22792 19.8676 2.35641 20.3187 2.66059 20.6015 2.83512 20.8141 2.96638 21.7837 3.21113 22.3765 2.98357 22.9693 2.7566 23.7816 2.71566 24.1543 2.73635 25.0109 2.78428 26.2761 2.3417 26.1816 1.16925Z" fill="#E31E24" fill-rule="evenodd" transform="matrix(1.0007 0 0 1 38 38.057)"/><path d="M6.22879 13.4007C5.7425 12.6697 5.24587 12.272 4.72579 12.6506L3.36147 13.6322C2.87227 13.9657 2.64195 14.5114 2.42357 15.0391L0.626725 19.4763C0.498233 20.0558 0.781148 20.1342 1.06348 19.6945 1.98813 18.1626 3.09196 16.738 4.11436 16.2663 4.24693 16.1981 5.08285 15.8703 5.39855 15.9025 5.82539 15.9458 6.36413 15.8352 6.65972 15.5414 6.97148 15.1843 7.12459 14.8131 6.96448 14.4215 6.71959 14.0966 6.47368 13.7457 6.22879 13.4007Z" fill="#E31E24" fill-rule="evenodd" transform="matrix(1.0007 0 0 1 38 38.057)"/><path d="M0.00509888 33.7107C0.195797 35.0271 0.703936 35.0795 0.864187 35.3711 1.02473 35.662 1.59245 37.2451 2.34403 38.1392L3.38959 39.6158C3.94143 40.3031 4.45365 40.5974 4.75099 40.4562 5.04949 40.3146 4.88065 39.9596 4.4554 39.3204 4.00247 38.5108 3.64599 37.4884 3.38959 36.2548 3.20006 35.1757 3.20297 33.849 3.26576 32.6841 3.3268 31.5204 3.01227 30.9771 2.61602 30.4632 1.38704 29.4935-0.0968787 31.7111 0.00509888 33.7107Z" fill="#E31E24" fill-rule="evenodd" transform="matrix(1.0007 0 0 1 38 38.057)"/><path d="M6.94962 48.0619C6.92195 48.7695 6.73707 49.9476 7.29343 50.2299 7.83639 50.4659 7.93983 50.3191 8.18472 50.3918 8.41577 50.4616 8.58345 50.9073 9.55195 51.382 10.328 51.9034 12.4249 52.1713 14.5035 52.1292 15.3055 52.1132 15.926 52.3401 16.5055 52.5688 16.8932 52.7917 17.0269 52.3942 16.7009 52.1915 14.7057 51.484 12.539 50.2694 11.1132 49.304 9.70346 48.3487 9.11519 46.8036 8.39159 46.6199 7.66623 46.4366 6.97599 47.3539 6.94977 48.0617Z" fill="#E31E24" fill-rule="evenodd" transform="matrix(1.0007 0 0 1 38 38.057)"/><path d="M31.4589 54.3315C31.8828 55.0114 32.4988 56.0587 33.1163 55.8617 33.4033 55.7701 33.6654 55.5867 33.9086 55.4468 34.1258 55.323 34.3395 55.2514 34.4198 55.1629 34.5828 54.9808 35.7044 54.608 36.7482 54.263 38.3284 53.8654 41.2804 52.0812 41.9734 51.1755 42.2442 50.8201 41.9981 50.637 41.6267 50.8306 40.6962 51.3155 38.8221 51.8588 37.0672 52.2824 35.8587 52.5751 34.6598 52.4414 34.1211 52.3336 32.2511 51.9621 31.9194 51.8675 31.3922 52.303 30.8663 52.7381 31.0367 53.6513 31.4591 54.3315Z" fill="#E31E24" fill-rule="evenodd" transform="matrix(1.0007 0 0 1 38 38.057)"/></g></svg>